<svg width="63" height="55" viewBox="0 0 63 55" fill="none" xmlns="http://www.w3.org/2000/svg">
<path d="M38.0746 7.74103C32.8927 2.33272 30.3043 -0.371431 27.3222 0.0410668C24.3454 0.458148 22.9541 3.72147 20.1715 10.2481L19.447 11.9348C18.6595 13.791 18.2605 14.7168 17.4887 15.3997C16.7222 16.0827 15.6616 16.4447 13.5511 17.1689L11.6243 17.8243C4.18477 20.3681 0.462408 21.6422 0.0371448 24.241C-0.382868 26.8397 2.76723 29.0488 9.07267 33.458L10.7002 34.6038C12.4958 35.8551 13.3936 36.483 13.9081 37.3401C14.4331 38.1971 14.5118 39.1917 14.6746 41.1763L14.8269 42.9821C15.4044 49.9625 15.6984 53.455 18.4127 54.6466C21.127 55.8383 24.4714 53.9362 31.1549 50.1412L32.8822 49.1558C34.7827 48.0788 35.733 47.5379 36.8198 47.3821C37.9118 47.2308 39.0248 47.4829 41.2352 47.9871L43.2565 48.4454C51.053 50.2146 54.9538 51.1037 57.0592 49.2383C59.1592 47.3729 58.0724 43.995 55.8989 37.2301L55.3319 35.4884C54.7176 33.5634 54.4078 32.6009 54.5601 31.6522C54.7176 30.6988 55.3214 29.8647 56.5236 28.1872L57.6262 26.6655C61.8631 20.776 63.9789 17.8335 62.5613 15.4914C61.149 13.1493 57.1379 12.9568 49.1104 12.581L47.0313 12.4802C44.7528 12.3748 43.6082 12.3198 42.616 11.8843C41.6184 11.4489 40.8834 10.6789 39.4134 9.13894L38.0746 7.74103Z" fill="#EE8030"/>
</svg>
