<svg width="1438" height="211" viewBox="0 0 1438 211" fill="none" xmlns="http://www.w3.org/2000/svg">
<path fill-rule="evenodd" clip-rule="evenodd" d="M1438 108L1398.4 126C1357.6 144 1278.4 180 1198 204C1117.6 228 1038.4 240 958 216C877.6 192 798.4 132 718 102C637.6 72 558.4 72 478 84C397.6 96 318.4 120 238 108C157.6 96 78.4 48 37.6 24L-2 0V252H37.6C78.4 252 157.6 252 238 252C318.4 252 397.6 252 478 252C558.4 252 637.6 252 718 252C798.4 252 877.6 252 958 252C1038.4 252 1117.6 252 1198 252C1278.4 252 1357.6 252 1398.4 252H1438V108Z" fill="#457B9D" fill-opacity="0.65"/>
</svg>
