<svg width="1440" height="252" viewBox="0 0 1440 252" fill="none" xmlns="http://www.w3.org/2000/svg">
<path fill-rule="evenodd" clip-rule="evenodd" d="M0 144L39.6 126C80.4 108 159.6 72 240 48C320.4 24 399.6 12 480 36C560.4 60 639.6 120 720 150C800.4 180 879.6 180 960 168C1040.4 156 1119.6 132 1200 144C1280.4 156 1359.6 204 1400.4 228L1440 252V0H1400.4C1359.6 0 1280.4 0 1200 0C1119.6 0 1040.4 0 960 0C879.6 0 800.4 0 720 0C639.6 0 560.4 0 480 0C399.6 0 320.4 0 240 0C159.6 0 80.4 0 39.6 0H0V144Z" fill="#457B9D"/>
</svg>
